<svg xmlns="http://www.w3.org/2000/svg" viewBox="0 0 56 56" width="56" height="56">
  <!-- Avatar Andi Hartono — kepala profesional -->
  <defs>
    <radialGradient id="a3-bg" cx="0.5" cy="0.5" r="0.5">
      <stop offset="0" stop-color="#e0e6ed"/>
      <stop offset="1" stop-color="#bcc6d4"/>
    </radialGradient>
  </defs>
  <circle cx="28" cy="28" r="28" fill="url(#a3-bg)"/>
  <circle cx="28" cy="28" r="28" fill="#0f172a" opacity="0.04"/>

  <!-- Suit body -->
  <path d="M16 48 Q16 36 28 34 Q40 36 40 48 Z" fill="#1e293b"/>

  <!-- Collar -->
  <path d="M24 34 L28 38 L32 34 L28 30 Z" fill="#e2e8f0"/>

  <!-- Tie -->
  <path d="M26.5 36 L28 46 L29.5 36" fill="#1e293b" stroke="#c8a96a" stroke-width="0.5"/>

  <!-- Head -->
  <circle cx="28" cy="22" r="12" fill="#475569" opacity="0.2"/>
  <circle cx="28" cy="22" r="11" fill="#475569" opacity="0.25"/>

  <!-- Hair — short, cropped -->
  <path d="M18 20 Q18 8 22 7 Q25 5 28 6 Q31 5 34 7 Q38 8 38 20
           Q37 16 35 15 Q31 13 28 14 Q25 13 21 15 Q19 16 18 20 Z" fill="#0f172a"/>

  <!-- Face -->
  <circle cx="28" cy="23" r="10" fill="#94a3b8" opacity="0.3"/>

  <!-- Beard -->
  <path d="M21 26 Q22 30 25 31 Q28 32 31 31 Q34 30 35 26
           Q30 30 28 30.5 Q26 30 21 26 Z" fill="#475569" opacity="0.35"/>

  <!-- Eyes -->
  <ellipse cx="24" cy="22" rx="1.3" ry="0.8" fill="#1e293b" opacity="0.5"/>
  <ellipse cx="32" cy="22" rx="1.3" ry="0.8" fill="#1e293b" opacity="0.5"/>

  <!-- Eyebrows -->
  <path d="M21 20 Q23 19 25 20" fill="none" stroke="#1e293b" stroke-width="0.6" stroke-linecap="round"/>
  <path d="M31 20 Q33 19 35 20" fill="none" stroke="#1e293b" stroke-width="0.6" stroke-linecap="round"/>

  <!-- Smile -->
  <path d="M25 28 Q28 30 31 28" fill="none" stroke="#475569" stroke-width="0.7" stroke-linecap="round"/>
</svg>
