<svg xmlns="http://www.w3.org/2000/svg" viewBox="0 0 56 56" width="56" height="56">
  <!-- Avatar Budi Santoso — kepala profesional modern -->
  <defs>
    <radialGradient id="a1-bg" cx="0.5" cy="0.5" r="0.5">
      <stop offset="0" stop-color="#e2e8f0"/>
      <stop offset="1" stop-color="#cbd5e1"/>
    </radialGradient>
  </defs>
  <circle cx="28" cy="28" r="28" fill="url(#a1-bg)"/>
  <circle cx="28" cy="28" r="28" fill="#0f172a" opacity="0.03"/>

  <!-- Suit body -->
  <path d="M16 48 Q16 36 28 34 Q40 36 40 48 Z" fill="#1e293b"/>

  <!-- Collar -->
  <path d="M24 34 L28 38 L32 34 L28 30 Z" fill="#e2e8f0"/>

  <!-- Tie -->
  <path d="M26 36 L28 46 L30 36" fill="#c8a96a"/>

  <!-- Head -->
  <circle cx="28" cy="22" r="12" fill="#475569" opacity="0.25"/>
  <circle cx="28" cy="22" r="11" fill="#475569" opacity="0.3"/>

  <!-- Hair -->
  <path d="M18 20 Q18 10 22 9 Q24 7 28 8 Q32 7 34 9 Q38 10 38 20" fill="#1e293b"/>

  <!-- Face -->
  <circle cx="28" cy="23" r="10" fill="#94a3b8" opacity="0.35"/>

  <!-- Glasses -->
  <g stroke="#0f172a" stroke-width="0.8" fill="none" opacity="0.6">
    <rect x="22" y="20" width="7" height="6" rx="1"/>
    <rect x="27" y="20" width="7" height="6" rx="1"/>
    <line x1="29" y1="23" x2="34" y2="23"/>
    <line x1="22" y1="23" x2="20.5" y2="22"/>
    <line x1="34" y1="23" x2="35.5" y2="22"/>
  </g>

  <!-- Mouth — subtle smile -->
  <path d="M25 28 Q28 30 31 28" fill="none" stroke="#475569" stroke-width="0.7" stroke-linecap="round"/>
</svg>
